<?xml version="1.0" encoding="utf-8"?>
<!-- Generator: Adobe Illustrator 24.1.0, SVG Export Plug-In . SVG Version: 6.00 Build 0)  -->
<svg version="1.1" id="Capa_1" xmlns="http://www.w3.org/2000/svg" xmlns:xlink="http://www.w3.org/1999/xlink" x="0px" y="0px"
	 viewBox="0 0 50 48" style="enable-background:new 0 0 50 48;" xml:space="preserve">
<style type="text/css">
	.st0{fill:#FFFFFF;}
</style>
<g>
	<path class="st0" d="M39.5,39.3l1.1-1.1l-3.7-3.7c2.5-2.9,2.3-7.2-0.4-9.9c-1.5-1.5-3.5-2.2-5.5-2.2L27.3,8.7h-9.7L9.5,38.6h5.7
		l1.6-6.7h7.3c0.3,1.1,1,2.2,1.9,3.1c0.6,0.6,1.3,1.1,2.1,1.4l0.5,2.2h6.5l-0.6-2.3c0.4-0.2,0.8-0.5,1.2-0.8L39.5,39.3z M21.2,13.8
		H23L25.6,25c-0.6,0.7-1,1.4-1.3,2.2h-6.4L21.2,13.8z M27.1,25.6c1.1-1.1,2.6-1.7,4.1-1.7s3,0.6,4.2,1.7c2.3,2.3,2.3,6,0,8.3
		c-2.3,2.3-6,2.3-8.3,0C24.8,31.6,24.8,27.9,27.1,25.6z"/>
	<polygon class="st0" points="31.9,32.2 31.9,30.5 33.7,30.5 33.7,29 31.9,29 31.9,27.2 30.4,27.2 30.4,29 28.7,29 28.7,30.5 
		30.4,30.5 30.4,32.2 	"/>
</g>
</svg>
