<?xml version="1.0" encoding="utf-8"?>
<!-- Generator: Adobe Illustrator 22.0.1, SVG Export Plug-In . SVG Version: 6.00 Build 0)  -->
<svg version="1.1" id="Capa_1" xmlns="http://www.w3.org/2000/svg" xmlns:xlink="http://www.w3.org/1999/xlink" x="0px" y="0px"
	 viewBox="0 0 77 77" style="enable-background:new 0 0 77 77;" xml:space="preserve">
<style type="text/css">
	.st0{fill:#FFFFFF;}
</style>
<g>
	<g>
		<path class="st0" d="M48.6,73.7c-15.9,4.6-32.5-2.1-41-15.4l-1.8,0.5c8.9,14.2,26.4,21.5,43.3,16.6C66,70.6,77,55.1,77,38.4
			l-1.8,0.5C75,54.7,64.6,69.1,48.6,73.7z"/>
	</g>
	<g>
		<path class="st0" d="M28.3,3.3c15.2-4.4,30.9,1.5,39.7,13.6l1.9-0.5C60.7,3.3,44-3.1,27.8,1.5C11.6,6.2,0.9,20.5,0,36.4l1.9-0.5
			C2.9,21,13.1,7.6,28.3,3.3z"/>
	</g>
	<g>
		<path class="st0" d="M48.1,71.9C63,67.6,72.9,54.2,73.3,39.4l-1,0.3c-0.5,14.2-10,27.1-24.4,31.2c-14.4,4.1-29.3-1.7-37.3-13.4
			l-1,0.3C17.7,70.1,33.2,76.2,48.1,71.9z"/>
	</g>
	<g>
		<path class="st0" d="M28.8,5.1C14.7,9.2,5.1,21.5,3.8,35.3L4.9,35C6.2,21.7,15.5,10,29.1,6c13.6-3.9,27.7,1.1,36,11.6l1.1-0.3
			C57.7,6.3,43,1,28.8,5.1z"/>
	</g>
	<g>
		<polygon class="st0" points="46.4,66.1 46.8,62.8 49.9,61.5 46.9,60.1 46.7,56.8 44.4,59.2 41.2,58.4 42.8,61.3 41,64.1 
			44.3,63.5 		"/>
	</g>
	<g>
		<polygon class="st0" points="32.5,21.2 33,17.9 36.1,16.6 33.1,15.2 32.9,11.9 30.6,14.3 27.3,13.5 28.9,16.4 27.1,19.2 
			30.4,18.6 		"/>
	</g>
	<g>
		<path class="st0" d="M21.3,47.6c-1.9,0.6-3.8,0.5-5.2,0l0.4-2.6c1.1,0.5,2.8,0.6,4.2,0.2c1.3-0.4,2-1.5,1.6-2.6
			c-1-3.1-7.2,0.6-8.9-4.5c-0.7-2.2,0.4-4.6,3.8-5.7c1.7-0.5,3.3-0.6,4.7-0.4l-0.2,2.6c-1-0.2-2.3-0.1-3.7,0.3
			c-1.3,0.4-2,1.1-1.7,2.2c0.8,2.6,7.3-0.6,8.9,4.4C25.9,43.8,24.6,46.5,21.3,47.6z"/>
		<path class="st0" d="M28.9,44.9l-4.7-14.6l2.8-0.9L31.7,44L28.9,44.9z"/>
		<path class="st0" d="M36.1,29.2L40,41.3L37,42.3l-3.9-12.2l-3.5,1.1l-0.8-2.4l10.1-3.2l0.8,2.4L36.1,29.2z"/>
		<path class="st0" d="M45.4,39.6L40.7,25l2.8-0.9l4.7,14.6L45.4,39.6z"/>
		<path class="st0" d="M57,36.1c-4.8,1.6-7.4-1.6-8.6-5.6c-1.2-3.8-1-7.8,3.8-9.4c4.9-1.6,7.4,1.5,8.6,5.4
			C62,30.4,61.8,34.6,57,36.1z M52.9,23.6c-2.5,0.8-2.5,3.3-1.6,6c0.9,2.9,2.3,5.1,4.9,4.2c2.5-0.8,2.5-3.4,1.5-6.3
			C56.9,24.8,55.5,22.7,52.9,23.6z"/>
	</g>
	<g>
		<path class="st0" d="M22.9,58.2c-2.3,0.7-3.7-0.9-4.4-3.1c-0.7-2.1-0.5-4.3,1.8-5c2.4-0.8,3.7,0.9,4.4,3
			C25.4,55.2,25.2,57.5,22.9,58.2z M20.5,50.8c-1.7,0.5-1.6,2.3-1.1,3.9c0.6,1.7,1.5,3.3,3.2,2.7c1.7-0.5,1.6-2.3,1.1-4.1
			C23.2,51.8,22.2,50.3,20.5,50.8z"/>
		<path class="st0" d="M27.5,48.7l0.9,2.9l2.8-0.9l0.1,0.8l-2.6,0.8l1.1,3.4l-0.9,0.3l-2.6-7.9l4.4-1.4l0.3,0.8L27.5,48.7z"/>
		<path class="st0" d="M36.3,53.8l-2.6-7.9l0.9-0.3l2.6,7.9L36.3,53.8z"/>
		<path class="st0" d="M43.7,51.5c-2.2,0.7-3.8-0.6-4.6-3.1c-0.8-2.6-0.1-4.4,2-5.1c1-0.3,1.9-0.4,2.6-0.1l-0.1,0.8
			c-0.6-0.2-1.5-0.2-2.2,0.1c-1.6,0.5-2,2.1-1.3,4c0.7,2,1.9,3.1,3.4,2.6c0.9-0.3,1.5-0.8,1.9-1.5l0.5,0.6
			C45.4,50.6,44.7,51.2,43.7,51.5z"/>
		<path class="st0" d="M49.1,49.6l-2.6-7.9l0.9-0.3l2.6,7.9L49.1,49.6z"/>
		<path class="st0" d="M53.7,48.2l-0.9,0.3l-0.4-8.6l1.9-0.6l4.6,7.3l-1,0.3l-1.1-1.9l-3.2,1L53.7,48.2z M53.2,40.4l0.2,4.7l2.9-0.9
			l-2.4-4L53.2,40.4z"/>
		<path class="st0" d="M61.5,45.6L59,37.7l0.9-0.3l2.3,7.2l3.5-1.1l0.2,0.8L61.5,45.6z"/>
	</g>
</g>
</svg>
